<svg width="21" height="21" viewBox="0 0 21 21" fill="none" xmlns="http://www.w3.org/2000/svg">
<path fill-rule="evenodd" clip-rule="evenodd" d="M10.469 5.37556C7.63131 5.37556 5.34241 7.66446 5.34241 10.5022C5.34241 13.3399 7.63131 15.6288 10.469 15.6288C13.3067 15.6288 15.5956 13.3399 15.5956 10.5022C15.5956 7.66446 13.3067 5.37556 10.469 5.37556ZM7.13608 10.5024C7.13608 8.66414 8.63078 7.16943 10.469 7.16943C12.3073 7.16943 13.802 8.66414 13.802 10.5024C13.802 12.3407 12.3028 13.8354 10.469 13.8354C8.63524 13.8354 7.13608 12.3407 7.13608 10.5024ZM17.0012 5.16598C17.0012 5.83078 16.4658 6.36174 15.8054 6.36174C15.1406 6.36174 14.6097 5.82632 14.6097 5.16598C14.6097 4.50563 15.1451 3.97021 15.8054 3.97021C16.4658 3.97021 17.0012 4.50563 17.0012 5.16598ZM20.3965 6.37946C20.3207 4.77768 19.9548 3.35883 18.7814 2.18984C17.6124 1.02085 16.1935 0.65498 14.5917 0.574668C12.9409 0.48097 7.99273 0.48097 6.34187 0.574668C4.74454 0.650518 3.32569 1.01639 2.15224 2.18538C0.978788 3.35437 0.617382 4.77322 0.53707 6.375C0.443372 8.02587 0.443372 12.974 0.53707 14.6249C0.612921 16.2266 0.978788 17.6455 2.15224 18.8145C3.32569 19.9835 4.74008 20.3493 6.34187 20.4297C7.99273 20.5234 12.9409 20.5234 14.5917 20.4297C16.1935 20.3538 17.6124 19.9879 18.7814 18.8145C19.9503 17.6455 20.3162 16.2266 20.3965 14.6249C20.4902 12.974 20.4902 8.03033 20.3965 6.37946ZM18.2639 16.3963C17.9159 17.2708 17.2422 17.9446 16.3632 18.297C15.047 18.8191 11.9237 18.6986 10.4692 18.6986C9.01462 18.6986 5.8869 18.8146 4.57513 18.297C3.70062 17.949 3.02689 17.2753 2.67441 16.3963C2.15238 15.0801 2.27285 11.9568 2.27285 10.5023C2.27285 9.04773 2.15684 5.92001 2.67441 4.60825C3.02243 3.73373 3.69616 3.06 4.57513 2.70752C5.89136 2.18549 9.01462 2.30596 10.4692 2.30596C11.9237 2.30596 15.0514 2.18995 16.3632 2.70752C17.2377 3.05554 17.9114 3.72927 18.2639 4.60825C18.786 5.92448 18.6655 9.04773 18.6655 10.5023C18.6655 11.9568 18.786 15.0845 18.2639 16.3963Z" fill="#333333"/>
</svg>
