<svg width="175" height="19" viewBox="0 0 175 19" fill="none" xmlns="http://www.w3.org/2000/svg">
<path fill-rule="evenodd" clip-rule="evenodd" d="M14.0709 3.66737C15.7246 5.18599 16.5538 7.29599 16.5538 10.001C16.5538 12.7072 15.7461 14.8447 14.1331 16.4233C12.5189 17.9984 10.0564 18.7865 6.74661 18.7865H0.813965V1.39062H6.94525C10.0396 1.39062 12.416 2.14754 14.0709 3.66737Z" fill="#FFE300"/>
<path fill-rule="evenodd" clip-rule="evenodd" d="M29.8362 18.7864H33.7083V1.39062H29.8362V18.7864Z" fill="#FFE300"/>
<path fill-rule="evenodd" clip-rule="evenodd" d="M60.2701 18.7855L58.6571 15.0285H51.3831L49.7701 18.7855H45.6479L53.1457 1.38965H56.8945L64.3923 18.7855H60.2701Z" fill="#FFE300"/>
<path fill-rule="evenodd" clip-rule="evenodd" d="M87.605 9.92544H91.5023V16.0983C89.7816 18.0224 87.398 18.9844 84.3527 18.9844C81.804 18.9844 79.6657 18.1399 77.9354 16.4474C76.2052 14.7536 75.3401 12.6196 75.3401 10.0382C75.3401 7.45797 76.2219 5.30478 77.9857 3.57983C79.7483 1.85369 81.8746 0.991211 84.3659 0.991211C86.8571 0.991211 89.0206 1.8141 90.8573 3.45628L88.8471 6.36638C88.0681 5.68624 87.3525 5.21841 86.6992 4.96051C86.0459 4.70381 85.3375 4.57666 84.5765 4.57666C83.1035 4.57666 81.8626 5.07687 80.8515 6.08089C79.8428 7.08611 79.3378 8.40801 79.3378 10.0502C79.3378 11.6936 79.8213 13.0083 80.7905 13.9967C81.7585 14.9827 82.9132 15.4769 84.2534 15.4769C85.5936 15.4769 86.7112 15.2202 87.605 14.7044V9.92544Z" fill="#FFE300"/>
<path fill-rule="evenodd" clip-rule="evenodd" d="M117.024 1.38965H120.897V18.7855H117.024L108.757 7.88519V18.7855H104.885V1.38965H108.509L117.024 12.5874V1.38965Z" fill="#FFE300"/>
<path fill-rule="evenodd" clip-rule="evenodd" d="M147.46 18.7855L145.847 15.0285H138.573L136.96 18.7855H132.838L140.336 1.38965H144.085L151.582 18.7855H147.46Z" fill="#FFE300"/>
<path fill-rule="evenodd" clip-rule="evenodd" d="M163.523 18.7855V1.38965H167.395V15.326H174.794V18.7855H163.523Z" fill="#FFE300"/>
</svg>
