<svg width="40" height="27" viewBox="0 0 40 27" fill="none" xmlns="http://www.w3.org/2000/svg">
<path d="M27.2727 11.5761C30.2909 11.5761 32.7091 9.13972 32.7091 6.12154C32.7091 3.10336 30.2909 0.666992 27.2727 0.666992C24.2545 0.666992 21.8182 3.10336 21.8182 6.12154C21.8182 9.13972 24.2545 11.5761 27.2727 11.5761ZM12.7273 11.5761C15.7455 11.5761 18.1636 9.13972 18.1636 6.12154C18.1636 3.10336 15.7455 0.666992 12.7273 0.666992C9.70909 0.666992 7.27273 3.10336 7.27273 6.12154C7.27273 9.13972 9.70909 11.5761 12.7273 11.5761ZM12.7273 15.2124C8.49091 15.2124 0 17.3397 0 21.5761V26.1215H25.4545V21.5761C25.4545 17.3397 16.9636 15.2124 12.7273 15.2124ZM27.2727 15.2124C26.7455 15.2124 26.1455 15.2488 25.5091 15.3034C27.6182 16.8306 29.0909 18.8852 29.0909 21.5761V26.1215H40V21.5761C40 17.3397 31.5091 15.2124 27.2727 15.2124Z" fill="#FFE300"/>
</svg>
