<svg width="23" height="30" viewBox="0 0 23 30" fill="none" xmlns="http://www.w3.org/2000/svg">
<path d="M11.0578 0C10.3314 0 9.58934 0.0631581 8.84723 0.221053C4.48934 1.05789 1.01565 4.57895 0.194598 8.93684C-0.563297 13.0579 0.952493 16.8474 3.69986 19.2947C4.37881 19.8947 4.74197 20.7316 4.74197 21.6158V25.2632C4.74197 27 6.16302 28.4211 7.89986 28.4211H8.34197C8.8946 29.3684 9.88934 30 11.0578 30C12.2262 30 13.2367 29.3684 13.7735 28.4211H14.2157C15.9525 28.4211 17.3735 27 17.3735 25.2632V21.6158C17.3735 20.7474 17.7209 19.8947 18.3841 19.3105C20.6735 17.2895 22.1104 14.3368 22.1104 11.0526C22.1104 4.94211 17.1683 0 11.0578 0ZM14.2157 25.2632H7.89986V23.6842H14.2157V25.2632ZM14.2157 22.1053H7.89986V20.5263H14.2157V22.1053ZM11.8472 13.2789V17.3684H10.2683V13.2789L7.37881 10.4053L8.49986 9.28421L11.0578 11.8421L13.6157 9.28421L14.7367 10.4053L11.8472 13.2789Z" fill="#FFE300"/>
</svg>
